Coordinates
version=1
nRows=32
nColumns=22
inDegrees=yes

Units are S.I. units (second, meters, Newtons, ...)
If the header above contains a line with 'inDegrees', this indicates whether rotational values are in degrees (yes) or radians (no).

endheader
time	pelvis_tilt	pelvis_list	pelvis_rotation	pelvis_tx	pelvis_ty	pelvis_tz	hip_flexion_r	hip_adduction_r	hip_rotation_r	knee_angle_r	ankle_angle_r	subtalar_angle_r	hip_flexion_l	hip_adduction_l	hip_rotation_l	knee_angle_l	ankle_angle_l	subtalar_angle_l	lumbar_extension	lumbar_bending	lumbar_rotation
      5.21000000	     -4.56573133	     -1.97220184	    262.17638202	     -0.68864457	      0.91526497	      0.14247678	     -7.70719317	      1.50088479	     -7.73469606	    -18.49778728	     12.53717169	      6.40938515	     22.63915183	     -5.11108542	    -27.80250324	    -15.48495621	      4.60398790	     -5.45170713	     -8.35445416	     -2.54500100	     11.35623892
      5.22000000	     -4.66037925	     -1.84670427	    262.05672269	     -0.68867292	      0.91382653	      0.15033558	     -8.02983830	      1.50053722	     -7.71082090	    -18.67711712	     12.69063054	      6.50712284	     22.61212040	     -5.23062121	    -28.77418912	    -13.41588133	      4.79753166	     -4.99840901	     -8.10938112	     -2.47324187	     11.64551171
      5.23000000	     -4.78320136	     -1.67314875	    261.91276095	     -0.68869677	      0.91232514	      0.15828860	     -8.31206493	      1.52745039	     -7.62444856	    -18.84782545	     12.80136573	      6.59180772	     22.71058154	     -5.46127666	    -29.72949083	    -11.79914799	      4.96932237	     -4.71775789	     -7.80734677	     -2.37612166	     11.95483948
      5.24000000	     -4.93846665	     -1.54491606	    261.76372035	     -0.68868570	      0.91090614	      0.16638729	     -8.66146710	      1.57368132	     -7.48937429	    -19.00628295	     12.83190114	      6.70025473	     22.81327051	     -5.79016898	    -30.62486872	    -10.63562323	      5.17997382	     -4.44318532	     -7.55859097	     -2.25917960	     12.24256426
      5.25000000	     -5.12082601	     -1.46762406	    261.61723921	     -0.68866743	      0.90960250	      0.17467624	     -9.11287312	      1.63622624	     -7.32900271	    -19.09565401	     12.84101208	      6.89590045	     22.92034729	     -6.23131967	    -31.50699804	     -9.97692513	      5.34311391	     -4.10653273	     -7.36347346	     -2.14277012	     12.55792390
      5.26000000	     -5.31964076	     -1.42538120	    261.46972972	     -0.68862626	      0.90839626	      0.18316013	     -9.61705729	      1.70233940	     -7.12506608	    -19.17782373	     12.73967073	      7.05511530	     23.04854164	     -6.78255143	    -32.40091387	     -9.84232685	      5.54127021	     -3.99145541	     -7.19951394	     -2.02808414	     12.86545750
      5.27000000	     -5.52307094	     -1.43481266	    261.31752552	     -0.68856334	      0.90733158	      0.19188100	    -10.20439422	      1.75846601	     -6.85200925	    -19.22821042	     12.57969728	      7.27857561	     23.14694432	     -7.41980802	    -33.28575858	    -10.16781749	      5.70758055	     -3.96666907	     -7.07865017	     -1.93431096	     13.19512559
      5.28000000	     -5.71610029	     -1.49898561	    261.17389897	     -0.68842893	      0.90641382	      0.20087198	    -10.86538152	      1.78598767	     -6.54327200	    -19.27109816	     12.34623202	      7.51364513	     23.19249099	     -8.10542208	    -34.16653745	    -10.88975359	      5.86638091	     -4.08618396	     -6.99884382	     -1.87503669	     13.52572314
      5.29000000	     -5.88277352	     -1.61922439	    261.04413989	     -0.68815939	      0.90567153	      0.21017739	    -11.61136195	      1.76714815	     -6.19078171	    -19.28352758	     12.03120995	      7.91265945	     23.15143038	     -8.78966100	    -35.02931292	    -11.90118809	      5.94009667	     -4.41900053	     -6.95040848	     -1.85792034	     13.85994012
      5.30000000	     -5.99956918	     -1.78281842	    260.94021838	     -0.68771395	      0.90507583	      0.21980459	    -12.39809274	      1.67637472	     -5.85777567	    -19.31824023	     11.64694855	      8.27032933	     23.02233974	     -9.42106276	    -35.88845049	    -13.11380641	      5.99076100	     -4.86787696	     -6.91532721	     -1.90768777	     14.19237092
      5.31000000	     -6.04961588	     -1.97782942	    260.87337022	     -0.68701687	      0.90462719	      0.22975617	    -13.20012151	      1.49683212	     -5.56250218	    -19.39213880	     11.18326330	      8.67899613	     22.80024864	     -9.94561230	    -36.74451540	    -14.41622548	      5.97356804	     -5.45553778	     -6.87514022	     -2.02902809	     14.50597699
      5.32000000	     -6.01909524	     -2.18151943	    260.85534588	     -0.68600152	      0.90431368	      0.24001405	    -13.97644333	      1.21938327	     -5.32579482	    -19.52676065	     10.63510867	      9.12982569	     22.50361043	    -10.31950160	    -37.60056848	    -15.71629859	      5.87461466	     -6.18507541	     -6.80355271	     -2.22266426	     14.79227366
      5.33000000	     -5.91033442	     -2.37573115	    260.88627030	     -0.68467425	      0.90413283	      0.25052470	    -14.68591303	      0.85589827	     -5.12473885	    -19.75528003	      9.99471707	      9.60651898	     22.15497312	    -10.53372350	    -38.47089013	    -16.95096859	      5.69779531	     -7.06820503	     -6.68699633	     -2.48492113	     15.03798416
      5.34000000	     -5.71098131	     -2.53575743	    260.97976797	     -0.68296693	      0.90406922	      0.26127446	    -15.29076328	      0.39757507	     -4.98891821	    -20.08824886	      9.23912827	     10.13334252	     21.78537035	    -10.55077206	    -39.32210788	    -18.05631009	      5.44229016	     -8.15497632	     -6.49591658	     -2.81586726	     15.25329359
      5.35000000	     -5.42647786	     -2.65695899	    261.16773767	     -0.68081288	      0.90411840	      0.27217875	    -15.74196678	     -0.14802610	     -4.97765187	    -20.60545541	      8.32341204	     10.75052715	     21.42033311	    -10.34690971	    -40.05335906	    -18.99442561	      5.13424513	     -9.49456633	     -6.24589051	     -3.20308466	     15.38915858
      5.36000000	     -5.09012879	     -2.71854668	    261.43419374	     -0.67825398	      0.90427182	      0.28318188	    -16.01798040	     -0.73721655	     -5.00479741	    -21.30039974	      7.25341365	     11.41361573	     21.09512106	     -9.97350846	    -40.62753503	    -19.78459706	      4.80338791	    -10.94648007	     -5.92610759	     -3.60482161	     15.45664366
      5.37000000	     -4.72335385	     -2.72318748	    261.78718672	     -0.67530653	      0.90455054	      0.29422652	    -16.10540164	     -1.34556648	     -5.06690046	    -22.19690738	      5.97318371	     12.14617487	     20.81446094	     -9.44883579	    -40.95539119	    -20.42805435	      4.47715259	    -12.43739670	     -5.55347101	     -4.00409206	     15.46009966
      5.38000000	     -4.36028401	     -2.68298058	    262.21780098	     -0.67201977	      0.90498112	      0.30527296	    -16.01633498	     -1.93702146	     -5.10982732	    -23.28878880	      4.43330501	     12.94961197	     20.57107644	     -8.82848676	    -41.01109977	    -20.96580238	      4.21175644	    -13.85265793	     -5.15304404	     -4.36928985	     15.39871963
      5.39000000	     -4.01143368	     -2.61274385	    262.71687423	     -0.66842994	      0.90558335	      0.31626032	    -15.74480990	     -2.50787679	     -5.12096401	    -24.60159241	      2.63230930	     13.80819154	     20.34783600	     -8.13723475	    -40.77878542	    -21.41553285	      3.99218912	    -15.07817272	     -4.75021438	     -4.69565663	     15.30095755
      5.40000000	     -3.70952377	     -2.53645238	    263.28807106	     -0.66460898	      0.90638426	      0.32714514	    -15.32459274	     -3.01422149	     -5.05622641	    -26.10986900	      0.55620311	     14.68302092	     20.12428644	     -7.43219674	    -40.27184508	    -21.81694803	      3.80904620	    -16.04445711	     -4.37899842	     -4.96035709	     15.16142010
      5.41000000	     -3.47902689	     -2.47072009	    263.88777117	     -0.66062768	      0.90738027	      0.33791672	    -14.77584023	     -3.43114322	     -4.79629506	    -27.78836502	     -1.83137298	     15.64303772	     19.87447328	     -6.77695598	    -39.60944064	    -22.21242780	      3.81882353	    -16.83053844	     -4.05703865	     -5.13147753	     15.01138417
      5.42000000	     -3.32937637	     -2.42892793	    264.54437352	     -0.65652503	      0.90855301	      0.34850559	    -14.10914965	     -3.73226792	     -4.38865805	    -29.63846678	     -4.43768518	     16.54339486	     19.59451774	     -6.18270574	    -38.77072961	    -22.60324572	      3.88717061	    -17.33867855	     -3.80462883	     -5.21230937	     14.83814676
      5.43000000	     -3.26860391	     -2.42074746	    265.25498870	     -0.65234502	      0.90986343	      0.35886571	    -13.33520171	     -3.89621880	     -3.81922954	    -31.65329328	     -7.19437724	     17.34788752	     19.28099531	     -5.67151450	    -37.80097067	    -23.00223802	      4.01387570	    -17.63763600	     -3.63496283	     -5.19617071	     14.64485896
      5.44000000	     -3.28551653	     -2.42995941	    265.98235243	     -0.64813108	      0.91123362	      0.36897908	    -12.42919665	     -3.92312713	     -3.02526405	    -33.83483594	     -9.98377647	     18.07744585	     18.93479053	     -5.24197196	    -36.78644676	    -23.38257693	      4.27072793	    -17.78939919	     -3.51859416	     -5.08273019	     14.43425333
      5.45000000	     -3.36313198	     -2.47165815	    266.75212890	     -0.64389792	      0.91260745	      0.37880014	    -11.41009660	     -3.82602384	     -2.12978222	    -36.19049901	    -12.65772256	     18.61270254	     18.55963012	     -4.88043857	    -35.73012549	    -23.75815069	      4.55870288	    -17.82044313	     -3.47692323	     -4.90337056	     14.20887280
      5.46000000	     -3.47090634	     -2.54172117	    267.55513953	     -0.63964659	      0.91391936	      0.38832053	    -10.28427575	     -3.63288015	     -1.16415139	    -38.69882789	    -15.07935220	     18.92196214	     18.15718778	     -4.55509179	    -34.66168778	    -24.11633214	      4.87913017	    -17.77675437	     -3.49836575	     -4.68499837	     13.96934415
      5.47000000	     -3.57604854	     -2.62771028	    268.36698037	     -0.63541052	      0.91510106	      0.39755697	     -9.04448278	     -3.39103820	     -0.18529551	    -41.34693117	    -17.14044342	     19.03225448	     17.72384915	     -4.23946100	    -33.65885939	    -24.42943167	      5.24987817	    -17.68534760	     -3.55739838	     -4.46525740	     13.72999879
      5.48000000	     -3.64264797	     -2.73410138	    269.18797854	     -0.63116688	      0.91613253	      0.40651945	     -7.72185941	     -3.14867629	      0.74538720	    -44.07901661	    -18.76582326	     18.92703241	     17.24530059	     -3.88905294	    -32.73775914	    -24.67790574	      5.64872853	    -17.57006521	     -3.65599457	     -4.28100758	     13.49797158
      5.49000000	     -3.64792615	     -2.85172076	    270.01813370	     -0.62689985	      0.91700011	      0.41523624	     -6.33728978	     -2.94293238	      1.58788032	    -46.82741620	    -19.92943110	     18.62999238	     16.71586825	     -3.47415310	    -31.90887102	    -24.83697693	      6.05858521	    -17.44094338	     -3.77860589	     -4.15824649	     13.27685445
      5.50000000	     -3.58129161	     -2.97451810	    270.85532474	     -0.62260001	      0.91772511	      0.42374557	     -4.92271315	     -2.79153318	      2.34354796	    -49.50995117	    -20.63169805	     18.16469245	     16.12399578	     -2.97823768	    -31.17683915	    -24.88016565	      6.49258269	    -17.29965575	     -3.91237389	     -4.10699360	     13.05540662
      5.51000000	     -3.43209678	     -3.10684315	    271.71728916	     -0.61820841	      0.91835483	      0.43206907	     -3.51158339	     -2.72857532	      2.97111340	    -52.06179908	    -20.94009095	     17.65044889	     15.45905288	     -2.38205221	    -30.51526232	    -24.79880905	      6.88425667	    -17.14686926	     -4.06420962	     -4.13915335	     12.84450081
      5.52000000	     -3.23091667	     -3.22395344	    272.60273185	     -0.61372884	      0.91891242	      0.44024473	     -2.10895774	     -2.71637618	      3.51800607	    -54.41836430	    -20.90047266	     17.06419748	     14.74234769	     -1.71916592	    -29.91022751	    -24.59016202	      7.26232777	    -16.97116211	     -4.20015019	     -4.21689944	     12.59779440
